# xmcd
#
# Track frame offsets:
#	150
#	14810
#	29861
#	40673
#	56150
#	72507
#	83927
#	101235
#	114016
#	128634
#	144244
#	160749
#	173222
#	188525
#	200126
#
# Disc length: 2840 seconds
#
# Revision: 1
# Processed by: cddbd v1.5.1PL0 Copyright (c) Steve Scherf et al.
# Submitted via: audiograbber 1.83.01
#
DISCID=d50b160f
DTITLE=Mark Coonradt - 21 Jahre Country-Feeling mit Mark Coonradt
DYEAR=2000
DGENRE=Country
TTITLE0=M. C. with Blue Country - Acky Breaky Heart
TTITLE1=M. C. with The 2 Singing Cowboys - Divorce
TTITLE2=M. C. with Pony Express - Truck Driving Man
TTITLE3=M. C. with Pony Express - Rodeo Man
TTITLE4=M. C. with Crossfire - Crossfire
TTITLE5=M. C. with Blue Country - I´m an old Cowhand
TTITLE6=M. C. with Pony Express - Americana
TTITLE7=M. C. with Blue Country - Fighten Side of me
TTITLE8=M. C. with The 2 Singing Cowboys - Rawhide
TTITLE9=M. C. with Pony Express - Devil went down to Georgia
TTITLE10=M. C. with Crossfire - Deeper than a Holler
TTITLE11=M. C. with Pony Express - Swingen
TTITLE12=M. C. with The 2 Singing Cowboys - Key to my Heart
TTITLE13=M. C. with The 2 Singing Cowboys - Unknown Stuntman
TTITLE14=M. C. with Blue Country - Baby´s got her Blue Jeans on
EXTD=
EXTT0=
EXTT1=
EXTT2=
EXTT3=
EXTT4=
EXTT5=
EXTT6=
EXTT7=
EXTT8=
EXTT9=
EXTT10=
EXTT11=
EXTT12=
EXTT13=
EXTT14=
PLAYORDER=
